<svg xmlns="http://www.w3.org/2000/svg" width="1324" height="533" viewBox="0 0 1324 533" role="img" aria-label="Typo logo">
<title>Typo logo</title>
<g shape-rendering="geometricPrecision">
<path d="M 1140.00 114.00 L 1115.00 119.00 L 1100.00 124.00 L 1079.00 134.00 L 1055.00 151.00 L 1035.00 172.00 L 1022.00 191.00 L 1013.00 209.00 L 1006.00 229.00 L 1001.00 258.00 L 1002.00 288.00 L 1007.00 312.00 L 1012.00 327.00 L 1023.00 349.00 L 1040.00 372.00 L 1064.00 394.00 L 1091.00 410.00 L 1113.00 418.00 L 1140.00 423.00 L 1171.00 423.00 L 1197.00 418.00 L 1216.00 411.00 L 1230.00 404.00 L 1253.00 388.00 L 1275.00 365.00 L 1291.00 340.00 L 1297.00 327.00 L 1303.00 309.00 L 1308.00 278.00 L 1307.00 248.00 L 1300.00 217.00 L 1290.00 194.00 L 1275.00 171.00 L 1257.00 152.00 L 1243.00 141.00 L 1227.00 131.00 L 1197.00 119.00 L 1172.00 114.00 Z M 1137.00 165.00 L 1167.00 164.00 L 1179.00 166.00 L 1199.00 173.00 L 1213.00 181.00 L 1235.00 201.00 L 1243.00 212.00 L 1253.00 232.00 L 1259.00 255.00 L 1260.00 272.00 L 1257.00 293.00 L 1249.00 315.00 L 1242.00 327.00 L 1236.00 335.00 L 1220.00 351.00 L 1212.00 357.00 L 1190.00 368.00 L 1171.00 373.00 L 1149.00 374.00 L 1126.00 370.00 L 1117.00 367.00 L 1092.00 353.00 L 1075.00 337.00 L 1066.00 325.00 L 1055.00 302.00 L 1051.00 286.00 L 1050.00 258.00 L 1052.00 246.00 L 1059.00 226.00 L 1070.00 207.00 L 1088.00 188.00 L 1102.00 178.00 L 1119.00 170.00 Z" fill="#ff1018" fill-rule="evenodd"/>
<path d="M 1146.00 165.00 L 1129.00 168.00 L 1115.00 173.00 L 1095.00 184.00 L 1078.00 199.00 L 1066.00 215.00 L 1057.00 234.00 L 1052.00 253.00 L 1051.00 276.00 L 1055.00 298.00 L 1065.00 321.00 L 1074.00 334.00 L 1090.00 350.00 L 1105.00 360.00 L 1127.00 369.00 L 1143.00 372.00 L 1167.00 372.00 L 1183.00 369.00 L 1201.00 362.00 L 1217.00 352.00 L 1237.00 332.00 L 1245.00 320.00 L 1254.00 299.00 L 1258.00 280.00 L 1258.00 258.00 L 1255.00 242.00 L 1247.00 221.00 L 1236.00 204.00 L 1224.00 191.00 L 1204.00 177.00 L 1188.00 170.00 L 1164.00 165.00 Z M 1146.00 201.00 L 1170.00 202.00 L 1182.00 206.00 L 1197.00 215.00 L 1209.00 227.00 L 1214.00 234.00 L 1220.00 247.00 L 1223.00 259.00 L 1222.00 284.00 L 1217.00 298.00 L 1207.00 313.00 L 1189.00 328.00 L 1175.00 334.00 L 1160.00 337.00 L 1143.00 336.00 L 1129.00 332.00 L 1110.00 320.00 L 1095.00 302.00 L 1089.00 288.00 L 1087.00 279.00 L 1087.00 259.00 L 1089.00 250.00 L 1096.00 234.00 L 1101.00 227.00 L 1113.00 215.00 L 1128.00 206.00 Z M 1151.00 239.00 L 1139.00 243.00 L 1130.00 251.00 L 1125.00 262.00 L 1125.00 274.00 L 1130.00 286.00 L 1136.00 292.00 L 1146.00 297.00 L 1160.00 298.00 L 1171.00 294.00 L 1181.00 284.00 L 1185.00 273.00 L 1185.00 263.00 L 1179.00 250.00 L 1171.00 243.00 L 1164.00 240.00 Z M 648.00 128.00 L 565.00 128.00 L 496.00 311.00 L 494.00 310.00 L 430.00 129.00 L 341.00 128.00 L 340.00 130.00 L 455.00 393.00 L 441.00 426.00 L 433.00 438.00 L 424.00 446.00 L 411.00 452.00 L 398.00 454.00 L 378.00 450.00 L 372.00 451.00 L 372.00 509.00 L 374.00 511.00 L 413.00 517.00 L 447.00 513.00 L 458.00 509.00 L 479.00 497.00 L 502.00 473.00 L 522.00 435.00 L 649.00 130.00 Z M 911.00 139.00 L 890.00 129.00 L 876.00 125.00 L 859.00 122.00 L 834.00 122.00 L 817.00 125.00 L 792.00 135.00 L 780.00 143.00 L 763.00 159.00 L 761.00 128.00 L 686.00 129.00 L 686.00 513.00 L 762.00 513.00 L 763.00 380.00 L 778.00 393.00 L 802.00 406.00 L 832.00 413.00 L 857.00 413.00 L 884.00 407.00 L 912.00 393.00 L 934.00 374.00 L 948.00 356.00 L 962.00 328.00 L 971.00 294.00 L 973.00 255.00 L 970.00 230.00 L 964.00 207.00 L 957.00 190.00 L 949.00 176.00 L 930.00 153.00 Z M 819.00 185.00 L 840.00 185.00 L 849.00 187.00 L 859.00 191.00 L 871.00 199.00 L 882.00 210.00 L 891.00 225.00 L 895.00 236.00 L 899.00 257.00 L 899.00 276.00 L 897.00 290.00 L 893.00 304.00 L 883.00 323.00 L 871.00 336.00 L 861.00 343.00 L 846.00 349.00 L 833.00 351.00 L 824.00 351.00 L 807.00 348.00 L 797.00 344.00 L 784.00 335.00 L 771.00 319.00 L 765.00 306.00 L 762.00 295.00 L 760.00 279.00 L 760.00 256.00 L 762.00 242.00 L 766.00 228.00 L 773.00 214.00 L 787.00 199.00 L 794.00 194.00 L 804.00 189.00 Z M 18.00 17.00 L 16.00 19.00 L 16.00 111.00 L 18.00 113.00 L 78.00 113.00 L 79.00 82.00 L 81.00 80.00 L 150.00 81.00 L 150.00 356.00 L 95.00 358.00 L 95.00 412.00 L 286.00 413.00 L 287.00 358.00 L 232.00 356.00 L 232.00 81.00 L 299.00 80.00 L 301.00 113.00 L 364.00 112.00 L 364.00 18.00 Z" fill="#ffffff" fill-rule="evenodd"/>
<path d="M 1150.00 202.00 L 1129.00 207.00 L 1115.00 215.00 L 1104.00 225.00 L 1097.00 235.00 L 1090.00 251.00 L 1088.00 262.00 L 1088.00 276.00 L 1090.00 286.00 L 1097.00 303.00 L 1102.00 310.00 L 1113.00 321.00 L 1120.00 326.00 L 1136.00 333.00 L 1146.00 335.00 L 1165.00 335.00 L 1180.00 331.00 L 1190.00 326.00 L 1197.00 321.00 L 1208.00 310.00 L 1214.00 301.00 L 1220.00 286.00 L 1222.00 276.00 L 1222.00 262.00 L 1219.00 248.00 L 1212.00 233.00 L 1199.00 218.00 L 1189.00 211.00 L 1172.00 204.00 L 1160.00 202.00 Z M 1148.00 238.00 L 1162.00 238.00 L 1173.00 243.00 L 1181.00 251.00 L 1186.00 262.00 L 1186.00 275.00 L 1183.00 283.00 L 1173.00 294.00 L 1162.00 299.00 L 1148.00 299.00 L 1140.00 296.00 L 1128.00 285.00 L 1124.00 276.00 L 1123.00 266.00 L 1128.00 252.00 L 1137.00 243.00 Z" fill="#333333" fill-rule="evenodd"/>
</g>
</svg>
