<svg xmlns="http://www.w3.org/2000/svg" width="1520" height="602" viewBox="0 0 1520 602" role="img" aria-label="Typo logo">
<title>Typo logo</title>
<g shape-rendering="geometricPrecision">
<path d="M 1317.00 227.00 L 1305.00 230.00 L 1293.00 235.00 L 1282.00 242.00 L 1268.00 256.00 L 1262.00 265.00 L 1255.00 282.00 L 1253.00 291.00 L 1253.00 314.00 L 1256.00 326.00 L 1264.00 343.00 L 1269.00 350.00 L 1285.00 365.00 L 1300.00 373.00 L 1313.00 377.00 L 1339.00 378.00 L 1358.00 373.00 L 1368.00 368.00 L 1378.00 361.00 L 1388.00 351.00 L 1395.00 341.00 L 1402.00 325.00 L 1405.00 311.00 L 1405.00 294.00 L 1400.00 274.00 L 1390.00 256.00 L 1376.00 242.00 L 1367.00 236.00 L 1350.00 229.00 L 1331.00 226.00 Z M 1327.00 267.00 L 1338.00 268.00 L 1350.00 274.00 L 1360.00 285.00 L 1365.00 301.00 L 1362.00 316.00 L 1355.00 326.00 L 1346.00 333.00 L 1335.00 337.00 L 1319.00 336.00 L 1306.00 329.00 L 1298.00 320.00 L 1293.00 307.00 L 1293.00 298.00 L 1296.00 288.00 L 1299.00 283.00 L 1311.00 272.00 L 1317.00 269.00 Z M 743.00 142.00 L 647.00 142.00 L 579.00 325.00 L 567.00 352.00 L 491.00 143.00 L 488.00 141.00 L 388.00 142.00 L 394.00 160.00 L 520.00 446.00 L 503.00 485.00 L 485.00 506.00 L 474.00 512.00 L 462.00 515.00 L 425.00 512.00 L 424.00 579.00 L 426.00 581.00 L 466.00 588.00 L 488.00 588.00 L 510.00 584.00 L 529.00 577.00 L 547.00 566.00 L 573.00 540.00 L 585.00 521.00 L 602.00 484.00 L 740.00 154.00 Z M 1051.00 156.00 L 1032.00 146.00 L 1008.00 138.00 L 978.00 134.00 L 955.00 135.00 L 935.00 139.00 L 910.00 149.00 L 895.00 159.00 L 876.00 177.00 L 875.00 142.00 L 873.00 141.00 L 786.00 143.00 L 787.00 584.00 L 875.00 583.00 L 876.00 431.00 L 896.00 448.00 L 924.00 462.00 L 955.00 469.00 L 986.00 469.00 L 1022.00 460.00 L 1047.00 447.00 L 1063.00 435.00 L 1077.00 421.00 L 1090.00 404.00 L 1106.00 372.00 L 1115.00 340.00 L 1119.00 307.00 L 1117.00 267.00 L 1107.00 227.00 L 1094.00 200.00 L 1081.00 182.00 L 1066.00 167.00 Z M 941.00 207.00 L 964.00 207.00 L 974.00 209.00 L 989.00 215.00 L 1001.00 223.00 L 1013.00 235.00 L 1021.00 247.00 L 1028.00 263.00 L 1033.00 287.00 L 1032.00 321.00 L 1027.00 341.00 L 1019.00 358.00 L 1013.00 367.00 L 996.00 383.00 L 979.00 392.00 L 963.00 396.00 L 934.00 395.00 L 921.00 391.00 L 905.00 382.00 L 891.00 368.00 L 884.00 357.00 L 878.00 343.00 L 874.00 325.00 L 873.00 315.00 L 874.00 278.00 L 877.00 264.00 L 885.00 245.00 L 895.00 231.00 L 909.00 219.00 L 925.00 211.00 Z M 14.00 15.00 L 14.00 124.00 L 86.00 124.00 L 88.00 87.00 L 166.00 86.00 L 169.00 89.00 L 169.00 402.00 L 166.00 405.00 L 105.00 405.00 L 105.00 468.00 L 326.00 469.00 L 327.00 406.00 L 266.00 405.00 L 263.00 403.00 L 263.00 88.00 L 271.00 86.00 L 337.00 86.00 L 341.00 88.00 L 342.00 124.00 L 413.00 124.00 L 414.00 15.00 Z" fill="#11161c" fill-rule="evenodd"/>
<path d="M 1324.00 124.00 L 1293.00 128.00 L 1275.00 133.00 L 1255.00 141.00 L 1226.00 158.00 L 1212.00 169.00 L 1196.00 185.00 L 1178.00 209.00 L 1162.00 242.00 L 1153.00 276.00 L 1151.00 306.00 L 1154.00 335.00 L 1159.00 355.00 L 1166.00 374.00 L 1182.00 403.00 L 1195.00 420.00 L 1213.00 438.00 L 1230.00 451.00 L 1245.00 460.00 L 1273.00 472.00 L 1304.00 479.00 L 1343.00 480.00 L 1377.00 474.00 L 1412.00 460.00 L 1427.00 451.00 L 1444.00 438.00 L 1464.00 418.00 L 1481.00 394.00 L 1495.00 365.00 L 1504.00 330.00 L 1506.00 311.00 L 1506.00 294.00 L 1502.00 263.00 L 1491.00 229.00 L 1482.00 211.00 L 1473.00 197.00 L 1451.00 172.00 L 1422.00 150.00 L 1394.00 136.00 L 1363.00 127.00 L 1350.00 125.00 Z M 1315.00 182.00 L 1342.00 182.00 L 1363.00 186.00 L 1383.00 194.00 L 1402.00 206.00 L 1420.00 223.00 L 1432.00 239.00 L 1443.00 262.00 L 1449.00 287.00 L 1450.00 306.00 L 1445.00 336.00 L 1433.00 363.00 L 1424.00 376.00 L 1409.00 392.00 L 1390.00 406.00 L 1369.00 416.00 L 1344.00 422.00 L 1325.00 423.00 L 1298.00 419.00 L 1281.00 413.00 L 1269.00 407.00 L 1254.00 397.00 L 1238.00 382.00 L 1223.00 361.00 L 1214.00 341.00 L 1208.00 316.00 L 1208.00 290.00 L 1212.00 270.00 L 1217.00 256.00 L 1224.00 242.00 L 1233.00 229.00 L 1251.00 210.00 L 1268.00 198.00 L 1289.00 188.00 Z" fill="#ff1018" fill-rule="evenodd"/>
<path d="M 950.00 208.00 L 934.00 210.00 L 922.00 214.00 L 902.00 226.00 L 892.00 237.00 L 882.00 255.00 L 877.00 272.00 L 875.00 285.00 L 875.00 318.00 L 877.00 332.00 L 882.00 349.00 L 892.00 367.00 L 901.00 377.00 L 912.00 385.00 L 928.00 392.00 L 945.00 395.00 L 957.00 395.00 L 974.00 392.00 L 992.00 384.00 L 1005.00 374.00 L 1012.00 366.00 L 1022.00 349.00 L 1028.00 332.00 L 1031.00 316.00 L 1031.00 285.00 L 1026.00 262.00 L 1021.00 250.00 L 1012.00 236.00 L 1000.00 224.00 L 993.00 219.00 L 975.00 211.00 Z M 1319.00 183.00 L 1297.00 187.00 L 1285.00 191.00 L 1267.00 200.00 L 1254.00 209.00 L 1235.00 228.00 L 1226.00 241.00 L 1214.00 268.00 L 1210.00 285.00 L 1209.00 312.00 L 1214.00 337.00 L 1225.00 362.00 L 1237.00 379.00 L 1252.00 394.00 L 1268.00 405.00 L 1282.00 412.00 L 1296.00 417.00 L 1318.00 421.00 L 1340.00 421.00 L 1361.00 417.00 L 1384.00 408.00 L 1405.00 394.00 L 1421.00 378.00 L 1431.00 364.00 L 1440.00 346.00 L 1445.00 331.00 L 1448.00 314.00 L 1448.00 290.00 L 1443.00 266.00 L 1433.00 243.00 L 1423.00 228.00 L 1405.00 210.00 L 1384.00 196.00 L 1361.00 187.00 L 1339.00 183.00 Z M 1320.00 225.00 L 1340.00 225.00 L 1349.00 227.00 L 1368.00 235.00 L 1378.00 242.00 L 1390.00 254.00 L 1398.00 266.00 L 1404.00 281.00 L 1407.00 298.00 L 1406.00 315.00 L 1404.00 324.00 L 1396.00 342.00 L 1389.00 352.00 L 1379.00 362.00 L 1364.00 372.00 L 1348.00 378.00 L 1336.00 380.00 L 1322.00 380.00 L 1310.00 378.00 L 1296.00 373.00 L 1280.00 363.00 L 1268.00 351.00 L 1261.00 341.00 L 1255.00 328.00 L 1251.00 312.00 L 1251.00 293.00 L 1256.00 274.00 L 1267.00 255.00 L 1280.00 242.00 L 1290.00 235.00 L 1303.00 229.00 Z M 1320.00 270.00 L 1309.00 275.00 L 1300.00 284.00 L 1295.00 297.00 L 1296.00 312.00 L 1301.00 322.00 L 1310.00 330.00 L 1322.00 335.00 L 1340.00 334.00 L 1351.00 328.00 L 1358.00 320.00 L 1363.00 307.00 L 1362.00 293.00 L 1357.00 283.00 L 1347.00 274.00 L 1333.00 269.00 Z" fill="#ffffff" fill-rule="evenodd"/>
</g>
</svg>
