<svg xmlns="http://www.w3.org/2000/svg" width="669" height="442" viewBox="0 0 669 442" role="img" aria-label="Typo logo">
<title>Typo logo</title>
<g shape-rendering="geometricPrecision">
<path d="M 493.00 112.00 L 470.00 115.00 L 437.00 126.00 L 411.00 141.00 L 397.00 152.00 L 384.00 165.00 L 368.00 186.00 L 352.00 218.00 L 343.00 253.00 L 342.00 279.00 L 345.00 302.00 L 348.00 314.00 L 356.00 336.00 L 362.00 348.00 L 375.00 368.00 L 386.00 381.00 L 401.00 395.00 L 421.00 409.00 L 441.00 419.00 L 462.00 426.00 L 487.00 430.00 L 514.00 430.00 L 542.00 425.00 L 574.00 412.00 L 593.00 400.00 L 604.00 391.00 L 623.00 371.00 L 640.00 344.00 L 650.00 319.00 L 654.00 305.00 L 657.00 286.00 L 657.00 256.00 L 653.00 233.00 L 642.00 202.00 L 628.00 178.00 L 617.00 164.00 L 606.00 153.00 L 587.00 138.00 L 556.00 122.00 L 527.00 114.00 Z M 492.00 165.00 L 508.00 165.00 L 525.00 168.00 L 540.00 173.00 L 552.00 179.00 L 566.00 189.00 L 580.00 203.00 L 590.00 217.00 L 600.00 238.00 L 605.00 260.00 L 605.00 282.00 L 602.00 298.00 L 591.00 324.00 L 578.00 342.00 L 563.00 356.00 L 542.00 369.00 L 525.00 375.00 L 505.00 378.00 L 485.00 377.00 L 471.00 374.00 L 453.00 367.00 L 433.00 354.00 L 418.00 339.00 L 407.00 323.00 L 398.00 302.00 L 394.00 283.00 L 394.00 260.00 L 396.00 248.00 L 406.00 222.00 L 420.00 202.00 L 431.00 191.00 L 446.00 180.00 L 468.00 170.00 Z" fill="#ff1018" fill-rule="evenodd"/>
<path d="M 487.00 167.00 L 469.00 171.00 L 450.00 179.00 L 434.00 190.00 L 419.00 205.00 L 409.00 219.00 L 399.00 243.00 L 396.00 255.00 L 395.00 279.00 L 397.00 292.00 L 403.00 312.00 L 415.00 333.00 L 430.00 350.00 L 450.00 364.00 L 473.00 373.00 L 488.00 376.00 L 512.00 376.00 L 527.00 373.00 L 549.00 364.00 L 565.00 353.00 L 580.00 338.00 L 588.00 327.00 L 600.00 300.00 L 604.00 278.00 L 603.00 256.00 L 597.00 234.00 L 588.00 216.00 L 576.00 200.00 L 562.00 187.00 L 539.00 174.00 L 527.00 170.00 L 501.00 166.00 Z M 490.00 200.00 L 515.00 201.00 L 527.00 205.00 L 541.00 213.00 L 552.00 223.00 L 561.00 235.00 L 567.00 247.00 L 571.00 265.00 L 571.00 278.00 L 569.00 290.00 L 561.00 308.00 L 556.00 315.00 L 542.00 329.00 L 534.00 334.00 L 517.00 341.00 L 506.00 343.00 L 494.00 343.00 L 481.00 341.00 L 470.00 337.00 L 457.00 329.00 L 445.00 318.00 L 437.00 307.00 L 431.00 294.00 L 428.00 282.00 L 429.00 256.00 L 434.00 242.00 L 441.00 230.00 L 453.00 217.00 L 461.00 211.00 L 475.00 204.00 Z M 494.00 239.00 L 483.00 243.00 L 473.00 252.00 L 469.00 259.00 L 467.00 266.00 L 467.00 277.00 L 471.00 288.00 L 479.00 297.00 L 491.00 303.00 L 504.00 304.00 L 517.00 299.00 L 526.00 291.00 L 530.00 284.00 L 532.00 277.00 L 532.00 265.00 L 527.00 253.00 L 519.00 245.00 L 506.00 239.00 Z M 14.00 12.00 L 12.00 14.00 L 12.00 116.00 L 14.00 118.00 L 74.00 118.00 L 77.00 115.00 L 77.00 84.00 L 82.00 80.00 L 150.00 80.00 L 155.00 85.00 L 155.00 355.00 L 150.00 360.00 L 104.00 360.00 L 102.00 362.00 L 102.00 421.00 L 106.00 424.00 L 287.00 423.00 L 289.00 421.00 L 289.00 362.00 L 287.00 360.00 L 241.00 360.00 L 237.00 356.00 L 237.00 84.00 L 242.00 80.00 L 309.00 80.00 L 314.00 86.00 L 313.00 100.00 L 314.00 116.00 L 316.00 118.00 L 376.00 118.00 L 379.00 115.00 L 379.00 15.00 L 376.00 12.00 Z" fill="#ffffff" fill-rule="evenodd"/>
</g>
</svg>
