<svg xmlns="http://www.w3.org/2000/svg" width="670" height="439" viewBox="0 0 670 439" role="img" aria-label="Typo logo">
<title>Typo logo</title>
<g shape-rendering="geometricPrecision">
<path d="M 498.00 200.00 L 483.00 203.00 L 469.00 209.00 L 459.00 216.00 L 449.00 226.00 L 444.00 233.00 L 435.00 254.00 L 434.00 280.00 L 437.00 292.00 L 443.00 305.00 L 460.00 324.00 L 469.00 330.00 L 486.00 337.00 L 514.00 338.00 L 536.00 330.00 L 546.00 323.00 L 559.00 309.00 L 567.00 294.00 L 570.00 285.00 L 571.00 259.00 L 568.00 247.00 L 562.00 234.00 L 557.00 227.00 L 544.00 214.00 L 528.00 205.00 L 519.00 202.00 L 508.00 200.00 Z M 500.00 235.00 L 511.00 236.00 L 520.00 240.00 L 532.00 252.00 L 536.00 262.00 L 536.00 276.00 L 531.00 288.00 L 521.00 298.00 L 509.00 303.00 L 495.00 303.00 L 487.00 300.00 L 480.00 295.00 L 471.00 283.00 L 468.00 270.00 L 471.00 256.00 L 476.00 248.00 L 485.00 240.00 L 491.00 237.00 Z M 14.00 12.00 L 12.00 15.00 L 12.00 114.00 L 14.00 117.00 L 74.00 117.00 L 76.00 115.00 L 76.00 84.00 L 80.00 80.00 L 149.00 80.00 L 153.00 84.00 L 153.00 353.00 L 149.00 357.00 L 102.00 357.00 L 100.00 359.00 L 100.00 419.00 L 106.00 421.00 L 289.00 420.00 L 291.00 416.00 L 290.00 359.00 L 287.00 357.00 L 242.00 357.00 L 237.00 351.00 L 237.00 86.00 L 242.00 80.00 L 310.00 80.00 L 314.00 84.00 L 314.00 115.00 L 316.00 117.00 L 375.00 117.00 L 377.00 115.00 L 377.00 14.00 L 375.00 12.00 Z" fill="#11161c" fill-rule="evenodd"/>
<path d="M 485.00 112.00 L 457.00 118.00 L 427.00 131.00 L 399.00 151.00 L 378.00 174.00 L 369.00 187.00 L 360.00 204.00 L 350.00 232.00 L 346.00 252.00 L 346.00 288.00 L 348.00 301.00 L 353.00 319.00 L 366.00 348.00 L 374.00 361.00 L 385.00 375.00 L 404.00 393.00 L 426.00 408.00 L 457.00 421.00 L 482.00 426.00 L 514.00 427.00 L 542.00 422.00 L 560.00 416.00 L 578.00 407.00 L 599.00 393.00 L 624.00 368.00 L 637.00 349.00 L 647.00 329.00 L 652.00 315.00 L 658.00 285.00 L 658.00 254.00 L 654.00 229.00 L 647.00 208.00 L 632.00 180.00 L 622.00 167.00 L 603.00 148.00 L 582.00 133.00 L 562.00 123.00 L 545.00 117.00 L 520.00 112.00 Z M 494.00 164.00 L 512.00 164.00 L 532.00 168.00 L 548.00 174.00 L 568.00 187.00 L 583.00 202.00 L 594.00 218.00 L 603.00 239.00 L 607.00 259.00 L 607.00 279.00 L 604.00 296.00 L 594.00 320.00 L 584.00 335.00 L 575.00 345.00 L 554.00 361.00 L 532.00 371.00 L 510.00 375.00 L 493.00 375.00 L 473.00 371.00 L 455.00 364.00 L 438.00 353.00 L 420.00 335.00 L 409.00 318.00 L 401.00 298.00 L 397.00 276.00 L 398.00 255.00 L 405.00 231.00 L 412.00 217.00 L 422.00 203.00 L 438.00 187.00 L 451.00 178.00 L 474.00 168.00 Z" fill="#ff1018" fill-rule="evenodd"/>
<path d="M 500.00 165.00 L 484.00 167.00 L 464.00 173.00 L 444.00 184.00 L 428.00 198.00 L 413.00 218.00 L 405.00 235.00 L 400.00 253.00 L 399.00 279.00 L 403.00 300.00 L 410.00 317.00 L 420.00 333.00 L 435.00 349.00 L 449.00 359.00 L 463.00 366.00 L 475.00 370.00 L 489.00 373.00 L 515.00 373.00 L 536.00 368.00 L 555.00 359.00 L 565.00 352.00 L 579.00 339.00 L 589.00 326.00 L 598.00 309.00 L 605.00 284.00 L 606.00 264.00 L 604.00 249.00 L 598.00 229.00 L 584.00 205.00 L 572.00 192.00 L 556.00 180.00 L 540.00 172.00 L 522.00 167.00 Z M 492.00 199.00 L 504.00 198.00 L 519.00 200.00 L 528.00 203.00 L 545.00 213.00 L 562.00 231.00 L 569.00 245.00 L 573.00 260.00 L 573.00 277.00 L 571.00 287.00 L 565.00 302.00 L 557.00 314.00 L 546.00 325.00 L 539.00 330.00 L 527.00 336.00 L 512.00 340.00 L 493.00 340.00 L 475.00 335.00 L 460.00 326.00 L 447.00 313.00 L 440.00 303.00 L 435.00 292.00 L 432.00 279.00 L 433.00 255.00 L 436.00 245.00 L 444.00 230.00 L 459.00 214.00 L 466.00 209.00 L 480.00 202.00 Z M 498.00 237.00 L 485.00 242.00 L 478.00 248.00 L 471.00 262.00 L 470.00 268.00 L 471.00 277.00 L 478.00 291.00 L 487.00 298.00 L 495.00 301.00 L 510.00 301.00 L 521.00 296.00 L 529.00 288.00 L 534.00 278.00 L 535.00 271.00 L 534.00 261.00 L 530.00 252.00 L 523.00 244.00 L 512.00 238.00 Z" fill="#ffffff" fill-rule="evenodd"/>
</g>
</svg>
