<svg xmlns="http://www.w3.org/2000/svg" width="1085" height="881" viewBox="0 0 1085 881" role="img" aria-label="Typo logo">
<title>Typo logo</title>
<g shape-rendering="geometricPrecision">
<path d="M 773.00 279.00 L 726.00 285.00 L 668.00 304.00 L 644.00 316.00 L 618.00 333.00 L 598.00 349.00 L 573.00 374.00 L 538.00 423.00 L 516.00 471.00 L 502.00 525.00 L 499.00 550.00 L 499.00 587.00 L 508.00 640.00 L 516.00 666.00 L 530.00 699.00 L 554.00 739.00 L 590.00 781.00 L 629.00 813.00 L 678.00 840.00 L 705.00 850.00 L 733.00 857.00 L 789.00 862.00 L 844.00 855.00 L 897.00 837.00 L 945.00 809.00 L 986.00 773.00 L 1018.00 732.00 L 1032.00 708.00 L 1048.00 672.00 L 1057.00 644.00 L 1065.00 604.00 L 1067.00 557.00 L 1060.00 502.00 L 1052.00 473.00 L 1040.00 442.00 L 1011.00 392.00 L 976.00 353.00 L 935.00 322.00 L 887.00 298.00 L 839.00 284.00 L 810.00 280.00 Z M 767.00 383.00 L 805.00 384.00 L 833.00 390.00 L 852.00 397.00 L 868.00 405.00 L 895.00 423.00 L 919.00 446.00 L 930.00 460.00 L 942.00 479.00 L 951.00 498.00 L 958.00 518.00 L 964.00 548.00 L 965.00 560.00 L 964.00 592.00 L 957.00 625.00 L 942.00 661.00 L 923.00 690.00 L 894.00 719.00 L 865.00 738.00 L 831.00 752.00 L 800.00 758.00 L 765.00 758.00 L 737.00 753.00 L 712.00 744.00 L 696.00 736.00 L 683.00 728.00 L 665.00 714.00 L 640.00 688.00 L 620.00 657.00 L 607.00 625.00 L 600.00 591.00 L 599.00 576.00 L 600.00 549.00 L 606.00 519.00 L 612.00 501.00 L 623.00 478.00 L 643.00 449.00 L 659.00 432.00 L 672.00 421.00 L 702.00 402.00 L 735.00 389.00 Z" fill="#ff1018" fill-rule="evenodd"/>
<path d="M 772.00 384.00 L 744.00 388.00 L 711.00 399.00 L 679.00 417.00 L 665.00 428.00 L 646.00 447.00 L 625.00 477.00 L 615.00 497.00 L 607.00 520.00 L 601.00 552.00 L 601.00 587.00 L 603.00 602.00 L 609.00 627.00 L 623.00 660.00 L 643.00 690.00 L 669.00 716.00 L 695.00 734.00 L 713.00 743.00 L 735.00 751.00 L 769.00 757.00 L 796.00 757.00 L 812.00 755.00 L 836.00 749.00 L 868.00 735.00 L 896.00 716.00 L 920.00 692.00 L 938.00 666.00 L 948.00 646.00 L 957.00 621.00 L 963.00 589.00 L 963.00 550.00 L 957.00 519.00 L 951.00 501.00 L 939.00 476.00 L 921.00 450.00 L 897.00 426.00 L 871.00 408.00 L 844.00 395.00 L 810.00 386.00 L 791.00 384.00 Z M 771.00 449.00 L 800.00 450.00 L 825.00 457.00 L 841.00 465.00 L 860.00 479.00 L 875.00 495.00 L 885.00 510.00 L 896.00 535.00 L 901.00 559.00 L 901.00 583.00 L 896.00 608.00 L 884.00 635.00 L 875.00 648.00 L 861.00 663.00 L 839.00 679.00 L 816.00 689.00 L 792.00 694.00 L 771.00 694.00 L 750.00 690.00 L 738.00 686.00 L 722.00 678.00 L 705.00 666.00 L 689.00 650.00 L 676.00 631.00 L 666.00 608.00 L 661.00 584.00 L 661.00 560.00 L 667.00 532.00 L 676.00 512.00 L 689.00 493.00 L 707.00 475.00 L 725.00 463.00 L 746.00 454.00 Z M 771.00 514.00 L 752.00 521.00 L 736.00 535.00 L 728.00 549.00 L 725.00 558.00 L 724.00 581.00 L 730.00 600.00 L 735.00 608.00 L 747.00 620.00 L 757.00 626.00 L 769.00 630.00 L 775.00 631.00 L 793.00 630.00 L 812.00 622.00 L 829.00 605.00 L 837.00 587.00 L 838.00 563.00 L 835.00 551.00 L 830.00 541.00 L 825.00 534.00 L 814.00 524.00 L 801.00 517.00 L 791.00 514.00 Z M 23.00 21.00 L 19.00 28.00 L 19.00 227.00 L 24.00 235.00 L 140.00 235.00 L 145.00 228.00 L 145.00 165.00 L 152.00 158.00 L 270.00 158.00 L 278.00 166.00 L 278.00 722.00 L 268.00 732.00 L 175.00 732.00 L 168.00 737.00 L 168.00 857.00 L 175.00 862.00 L 622.00 861.00 L 627.00 855.00 L 626.00 846.00 L 592.00 823.00 L 557.00 790.00 L 517.00 733.00 L 455.00 732.00 L 445.00 721.00 L 445.00 167.00 L 453.00 158.00 L 573.00 158.00 L 580.00 166.00 L 583.00 233.00 L 700.00 234.00 L 704.00 229.00 L 702.00 22.00 Z" fill="#ffffff" fill-rule="evenodd"/>
<path d="M 776.00 450.00 L 759.00 452.00 L 736.00 459.00 L 722.00 466.00 L 710.00 474.00 L 693.00 490.00 L 681.00 506.00 L 670.00 528.00 L 663.00 555.00 L 662.00 578.00 L 665.00 599.00 L 672.00 620.00 L 683.00 640.00 L 693.00 653.00 L 702.00 662.00 L 721.00 676.00 L 739.00 685.00 L 760.00 691.00 L 785.00 693.00 L 803.00 691.00 L 826.00 684.00 L 848.00 672.00 L 871.00 651.00 L 880.00 639.00 L 891.00 618.00 L 898.00 594.00 L 900.00 565.00 L 896.00 540.00 L 891.00 525.00 L 878.00 501.00 L 871.00 492.00 L 856.00 477.00 L 842.00 467.00 L 824.00 458.00 L 804.00 452.00 Z M 776.00 512.00 L 786.00 512.00 L 797.00 514.00 L 816.00 524.00 L 828.00 536.00 L 832.00 542.00 L 838.00 556.00 L 840.00 567.00 L 840.00 578.00 L 838.00 589.00 L 829.00 607.00 L 819.00 618.00 L 811.00 624.00 L 801.00 629.00 L 789.00 632.00 L 773.00 632.00 L 764.00 630.00 L 751.00 624.00 L 744.00 619.00 L 731.00 604.00 L 724.00 588.00 L 722.00 575.00 L 723.00 561.00 L 725.00 553.00 L 734.00 536.00 L 747.00 523.00 L 753.00 519.00 L 765.00 514.00 Z" fill="#333333" fill-rule="evenodd"/>
</g>
</svg>
