<svg xmlns="http://www.w3.org/2000/svg" width="1083" height="880" viewBox="0 0 1083 880" role="img" aria-label="Typo logo">
<title>Typo logo</title>
<g shape-rendering="geometricPrecision">
<path d="M 769.00 451.00 L 748.00 455.00 L 736.00 459.00 L 720.00 467.00 L 706.00 477.00 L 689.00 494.00 L 677.00 512.00 L 666.00 538.00 L 662.00 557.00 L 662.00 586.00 L 665.00 602.00 L 674.00 626.00 L 688.00 648.00 L 707.00 667.00 L 725.00 679.00 L 746.00 688.00 L 764.00 692.00 L 788.00 693.00 L 811.00 689.00 L 825.00 684.00 L 839.00 677.00 L 857.00 664.00 L 869.00 652.00 L 884.00 630.00 L 894.00 605.00 L 898.00 584.00 L 898.00 560.00 L 893.00 535.00 L 883.00 512.00 L 870.00 493.00 L 854.00 477.00 L 840.00 467.00 L 826.00 460.00 L 809.00 454.00 L 792.00 451.00 Z M 770.00 513.00 L 780.00 512.00 L 795.00 514.00 L 812.00 522.00 L 829.00 539.00 L 833.00 546.00 L 838.00 560.00 L 839.00 567.00 L 838.00 584.00 L 833.00 599.00 L 828.00 607.00 L 817.00 619.00 L 810.00 624.00 L 800.00 629.00 L 789.00 632.00 L 766.00 631.00 L 747.00 622.00 L 736.00 612.00 L 730.00 604.00 L 725.00 594.00 L 722.00 584.00 L 721.00 576.00 L 722.00 561.00 L 726.00 548.00 L 733.00 536.00 L 745.00 524.00 L 759.00 516.00 Z M 22.00 20.00 L 18.00 27.00 L 18.00 228.00 L 23.00 235.00 L 139.00 235.00 L 144.00 229.00 L 144.00 166.00 L 151.00 158.00 L 269.00 158.00 L 277.00 166.00 L 277.00 721.00 L 265.00 732.00 L 173.00 732.00 L 168.00 736.00 L 168.00 858.00 L 174.00 862.00 L 623.00 860.00 L 624.00 844.00 L 564.00 799.00 L 517.00 733.00 L 457.00 732.00 L 446.00 721.00 L 446.00 166.00 L 454.00 158.00 L 572.00 158.00 L 579.00 167.00 L 582.00 234.00 L 700.00 235.00 L 705.00 228.00 L 702.00 21.00 Z" fill="#11161c" fill-rule="evenodd"/>
<path d="M 766.00 281.00 L 722.00 287.00 L 667.00 305.00 L 618.00 333.00 L 589.00 357.00 L 568.00 379.00 L 549.00 404.00 L 531.00 434.00 L 510.00 486.00 L 500.00 535.00 L 499.00 590.00 L 503.00 620.00 L 510.00 649.00 L 522.00 683.00 L 534.00 708.00 L 563.00 752.00 L 600.00 791.00 L 637.00 819.00 L 664.00 834.00 L 690.00 845.00 L 745.00 859.00 L 803.00 861.00 L 827.00 858.00 L 864.00 849.00 L 915.00 827.00 L 959.00 797.00 L 995.00 761.00 L 1028.00 713.00 L 1052.00 656.00 L 1064.00 599.00 L 1065.00 546.00 L 1056.00 490.00 L 1038.00 440.00 L 1021.00 409.00 L 1007.00 389.00 L 969.00 349.00 L 930.00 321.00 L 884.00 299.00 L 827.00 284.00 L 798.00 281.00 Z M 766.00 384.00 L 805.00 385.00 L 836.00 392.00 L 866.00 405.00 L 898.00 427.00 L 919.00 448.00 L 927.00 458.00 L 940.00 478.00 L 948.00 494.00 L 960.00 531.00 L 964.00 562.00 L 964.00 577.00 L 961.00 603.00 L 951.00 639.00 L 934.00 673.00 L 916.00 697.00 L 900.00 713.00 L 885.00 725.00 L 854.00 743.00 L 818.00 755.00 L 787.00 759.00 L 754.00 757.00 L 723.00 749.00 L 693.00 735.00 L 664.00 714.00 L 640.00 689.00 L 622.00 662.00 L 607.00 627.00 L 599.00 586.00 L 599.00 554.00 L 605.00 521.00 L 619.00 485.00 L 630.00 466.00 L 642.00 450.00 L 661.00 430.00 L 676.00 418.00 L 693.00 407.00 L 711.00 398.00 L 730.00 391.00 Z" fill="#ff1018" fill-rule="evenodd"/>
<path d="M 771.00 385.00 L 735.00 391.00 L 703.00 403.00 L 687.00 412.00 L 670.00 424.00 L 646.00 447.00 L 626.00 475.00 L 612.00 504.00 L 602.00 541.00 L 600.00 560.00 L 600.00 579.00 L 605.00 614.00 L 617.00 649.00 L 632.00 676.00 L 644.00 692.00 L 659.00 708.00 L 673.00 720.00 L 689.00 731.00 L 722.00 747.00 L 758.00 756.00 L 796.00 757.00 L 828.00 751.00 L 846.00 745.00 L 867.00 735.00 L 896.00 715.00 L 919.00 692.00 L 938.00 664.00 L 948.00 643.00 L 956.00 620.00 L 962.00 586.00 L 962.00 552.00 L 956.00 520.00 L 942.00 484.00 L 920.00 451.00 L 895.00 426.00 L 869.00 408.00 L 838.00 394.00 L 810.00 387.00 Z M 773.00 449.00 L 797.00 450.00 L 823.00 457.00 L 841.00 466.00 L 856.00 477.00 L 875.00 497.00 L 887.00 516.00 L 895.00 536.00 L 900.00 562.00 L 899.00 590.00 L 892.00 616.00 L 883.00 635.00 L 869.00 654.00 L 853.00 669.00 L 831.00 683.00 L 810.00 691.00 L 782.00 695.00 L 760.00 693.00 L 741.00 688.00 L 722.00 679.00 L 705.00 667.00 L 688.00 650.00 L 676.00 633.00 L 665.00 608.00 L 660.00 584.00 L 660.00 559.00 L 666.00 532.00 L 674.00 514.00 L 689.00 492.00 L 704.00 477.00 L 719.00 466.00 L 737.00 457.00 L 749.00 453.00 Z M 775.00 514.00 L 754.00 520.00 L 746.00 525.00 L 734.00 537.00 L 725.00 555.00 L 723.00 565.00 L 723.00 579.00 L 725.00 589.00 L 731.00 603.00 L 745.00 619.00 L 765.00 629.00 L 783.00 631.00 L 795.00 629.00 L 809.00 623.00 L 815.00 619.00 L 825.00 609.00 L 835.00 589.00 L 837.00 579.00 L 837.00 565.00 L 833.00 550.00 L 828.00 540.00 L 815.00 526.00 L 796.00 516.00 L 785.00 514.00 Z" fill="#ffffff" fill-rule="evenodd"/>
</g>
</svg>
